<svg width="1581" height="422" viewBox="0 0 1581 422" fill="none" xmlns="http://www.w3.org/2000/svg">
<path d="M271.275 298.08C289.748 321.906 327.319 315.648 337.953 286.63C342.746 273.552 338.85 259.65 355.435 258.264C368.769 257.149 380.654 259.158 379.972 276.595C377.599 337.234 318.368 370.28 268.163 348.052C240.253 335.697 220.407 302.42 223.275 269.785C224.359 257.42 236.796 257.561 246.243 258.254C264.192 259.56 259.548 273.291 265.173 287.072C266.5 290.326 269.191 295.398 271.266 298.08H271.275Z" fill="#1D334C"/>
<path d="M25.6699 349.036C17.3399 349.036 11.37 347.796 7.77002 345.316C4.16002 342.846 1.96993 339.576 1.17993 335.526C0.389932 331.476 0 327.306 0 323.026V138.616C0 134.346 0.389932 130.226 1.17993 126.286C1.96993 122.346 4.16002 119.136 7.77002 116.656C11.37 114.186 17.45 112.936 26.01 112.936C34.57 112.936 40.25 114.176 43.74 116.656C47.23 119.136 49.3699 122.346 50.1599 126.286C50.9499 130.226 51.3398 134.446 51.3398 138.946V323.356C51.3398 327.636 50.9399 331.746 50.1599 335.686C49.3699 339.626 47.1698 342.836 43.5698 345.306C39.9698 347.786 33.9999 349.026 25.6699 349.026V349.036ZM43.23 252.436V207.846H148.61V252.436H43.23ZM168.88 349.036C160.55 349.036 154.58 347.796 150.98 345.316C147.38 342.846 145.18 339.576 144.39 335.526C143.6 331.476 143.21 327.306 143.21 323.026V138.616C143.21 134.346 143.66 130.226 144.56 126.286C145.46 122.346 147.65 119.136 151.15 116.656C154.64 114.186 160.66 112.936 169.22 112.936C177.78 112.936 183.46 114.176 186.95 116.656C190.44 119.136 192.58 122.346 193.37 126.286C194.16 130.226 194.55 134.446 194.55 138.946V323.356C194.55 327.636 194.15 331.746 193.37 335.686C192.58 339.626 190.38 342.836 186.78 345.306C183.17 347.786 177.21 349.026 168.88 349.026V349.036Z" fill="#1D334C"/>
<path d="M481.971 344.646C471.611 344.646 461.871 342.456 452.751 338.056C443.631 333.666 435.581 327.646 428.601 319.986C421.621 312.336 416.101 303.556 412.051 293.636C408.001 283.736 405.971 273.266 405.971 262.226C405.971 251.186 408.001 240.776 412.051 230.986C416.101 221.196 421.671 212.526 428.771 204.976C435.861 197.436 443.971 191.466 453.091 187.076C462.211 182.686 471.721 180.486 481.631 180.486C491.541 180.486 500.321 182.456 507.301 186.396C514.281 190.336 519.911 195.966 524.191 203.286C528.461 210.606 531.671 219.276 533.821 229.296C535.961 239.316 537.031 250.526 537.031 262.906C537.031 279.576 535.171 294.036 531.461 306.306C527.741 318.586 521.891 328.036 513.901 334.676C505.901 341.316 495.261 344.636 481.981 344.636L481.971 344.646ZM488.051 418.616C479.941 418.616 472.011 417.606 464.241 415.576C456.471 413.546 449.321 410.846 442.791 407.466C436.261 404.086 431.081 400.486 427.251 396.656C423.421 392.826 421.511 388.996 421.511 385.176C421.511 381.566 422.191 378.256 423.541 375.216C424.891 372.176 426.921 369.186 429.621 366.266C432.771 362.886 435.471 360.296 437.731 358.496C439.981 356.696 442.681 355.796 445.841 355.796C449.001 355.796 451.801 356.646 454.291 358.326C456.761 360.016 459.411 361.876 462.231 363.896C465.041 365.926 468.591 367.776 472.871 369.466C477.141 371.156 482.551 371.996 489.081 371.996C493.581 371.996 497.801 371.146 501.741 369.466C505.681 367.776 509.061 365.296 511.871 362.036C514.681 358.766 516.941 354.946 518.621 350.556C520.311 346.166 521.151 341.266 521.151 335.866V196.036C521.831 190.186 524.131 185.956 528.071 183.366C532.011 180.776 538.031 179.486 546.141 179.486C554.251 179.486 559.651 180.666 563.031 183.036C566.411 185.406 568.491 188.496 569.281 192.326C570.071 196.156 570.461 200.206 570.461 204.486V337.896C570.461 350.726 568.091 362.156 563.371 372.176C558.641 382.196 552.331 390.636 544.451 397.506C536.571 404.376 527.781 409.606 518.111 413.216C508.431 416.816 498.401 418.616 488.051 418.616ZM487.711 295.676C493.791 295.676 499.191 294.156 503.921 291.116C508.651 288.076 512.421 284.086 515.241 279.126C518.051 274.176 519.461 268.546 519.461 262.236C519.461 255.926 518.051 250.306 515.241 245.346C512.421 240.396 508.601 236.456 503.761 233.526C498.921 230.606 493.461 229.136 487.381 229.136C481.301 229.136 475.901 230.656 471.171 233.696C466.441 236.736 462.671 240.736 459.861 245.686C457.041 250.636 455.641 256.266 455.641 262.576C455.641 268.886 457.101 274.176 460.031 279.126C462.961 284.076 466.841 288.076 471.681 291.116C476.521 294.156 481.861 295.676 487.721 295.676H487.711Z" fill="#1D334C"/>
<path d="M659.289 351.736C653.209 351.736 646.569 351.056 639.359 349.706C632.149 348.356 625.229 346.376 618.589 343.796C611.949 341.206 606.309 338.166 601.699 334.676C597.079 331.186 594.549 327.196 594.099 322.686C593.649 320.436 593.699 318.016 594.269 315.426C594.829 312.836 595.839 310.136 597.309 307.316C598.769 304.506 600.739 301.516 603.219 298.366C605.019 295.886 606.989 294.316 609.129 293.636C611.269 292.956 613.909 293.076 617.069 293.976C620.669 294.656 624.269 295.836 627.879 297.526C631.479 299.216 635.199 301.016 639.029 302.926C642.859 304.846 646.799 306.536 650.849 307.996C654.899 309.466 659.069 310.196 663.349 310.196C669.649 310.196 674.549 309.236 678.039 307.326C681.529 305.416 683.269 302.766 683.269 299.386C683.269 296.906 682.539 294.886 681.079 293.306C679.609 291.736 677.579 290.376 674.999 289.256C672.409 288.136 669.369 287.066 665.879 286.046C662.389 285.036 658.729 284.076 654.899 283.176C651.069 282.276 647.019 281.146 642.739 279.796C637.339 278.226 631.989 276.196 626.699 273.716C621.409 271.246 616.679 268.036 612.509 264.096C608.339 260.156 605.019 255.316 602.549 249.576C600.069 243.836 598.829 236.796 598.829 228.466C598.829 217.436 601.359 208.206 606.429 200.766C611.499 193.336 618.979 187.646 628.889 183.706C638.789 179.766 650.949 177.796 665.369 177.796C669.419 177.796 673.479 178.026 677.529 178.476C681.579 178.926 685.579 179.716 689.519 180.836C693.459 181.966 697.339 183.316 701.169 184.886C704.999 186.466 708.819 188.386 712.649 190.626C719.399 193.786 722.889 198.056 723.119 203.466C723.339 208.866 721.429 214.496 717.379 220.356C714.899 223.966 712.309 226.606 709.609 228.296C706.909 229.986 704.089 230.606 701.159 230.156C697.559 229.256 693.669 227.736 689.509 225.596C685.339 223.456 680.949 221.486 676.339 219.686C671.719 217.886 667.159 216.986 662.659 216.986C658.829 216.986 655.569 217.496 652.869 218.506C650.169 219.516 648.139 220.876 646.789 222.556C645.439 224.236 644.759 226.216 644.759 228.466C644.759 231.396 645.609 233.706 647.289 235.386C648.969 237.066 651.279 238.486 654.209 239.606C657.129 240.736 660.509 241.746 664.339 242.646C668.169 243.546 672.329 244.446 676.829 245.346C682.909 246.476 689.159 247.996 695.579 249.906C701.999 251.816 707.849 254.586 713.139 258.176C718.429 261.786 722.709 266.626 725.969 272.696C729.229 278.776 730.869 286.776 730.869 296.676C730.869 314.466 724.679 328.086 712.289 337.546C699.899 347.006 682.229 351.736 659.259 351.736H659.289Z" fill="#1D334C"/>
<path d="M777.84 349.036C769.73 349.036 763.88 347.796 760.28 345.316C756.68 342.846 754.48 339.636 753.69 335.696C752.9 331.756 752.51 327.646 752.51 323.366V129.156C752.51 124.656 752.9 120.436 753.69 116.496C754.48 112.556 756.67 109.406 760.28 107.036C763.88 104.676 769.85 103.486 778.18 103.486C786.51 103.486 792.03 104.726 795.41 107.206C798.79 109.686 800.81 112.896 801.49 116.826C802.17 120.766 802.39 124.876 802.17 129.156V333.836C801.04 339.016 798.68 342.846 795.08 345.316C791.48 347.796 785.73 349.036 777.86 349.036H777.84ZM843.36 348.696C832.33 348.696 822.64 346.386 814.31 341.776C805.98 337.166 799.05 330.916 793.54 323.026C788.02 315.146 783.86 306.136 781.04 296.006C778.22 285.876 776.93 275.066 777.16 263.576C777.16 252.546 778.62 241.956 781.55 231.826C784.47 221.696 788.7 212.796 794.22 205.146C799.73 197.496 806.6 191.466 814.82 187.076C823.04 182.686 832.55 180.486 843.36 180.486C853.49 180.486 863.17 182.736 872.41 187.236C881.64 191.746 889.91 197.876 897.24 205.646C904.55 213.416 910.3 222.316 914.46 232.326C918.62 242.346 920.71 252.876 920.71 263.906C920.71 274.936 918.63 286.256 914.46 296.496C910.29 306.746 904.61 315.806 897.4 323.686C890.19 331.566 881.98 337.706 872.74 342.096C863.5 346.486 853.71 348.686 843.35 348.686L843.36 348.696ZM836.61 298.716C842.91 298.716 848.54 297.196 853.5 294.156C858.45 291.116 862.45 287.006 865.49 281.826C868.53 276.646 870.05 270.906 870.05 264.606C870.05 258.306 868.58 252.566 865.66 247.386C862.73 242.206 858.74 238.156 853.67 235.226C848.6 232.306 843.03 230.836 836.95 230.836C830.87 230.836 825.3 232.356 820.23 235.396C815.16 238.436 811.22 242.486 808.41 247.556C805.59 252.616 804.19 258.306 804.19 264.616C804.19 270.926 805.65 276.666 808.58 281.836C811.51 287.016 815.45 291.126 820.4 294.166C825.35 297.206 830.76 298.726 836.61 298.726V298.716Z" fill="#1D334C"/>
<path d="M1027.1 352.076C1011.34 352.076 997.77 349.486 986.4 344.306C975.03 339.126 965.74 332.316 958.54 323.876C951.33 315.426 945.92 306.036 942.33 295.676C938.72 285.326 936.92 274.966 936.92 264.606C936.92 247.716 940.75 232.746 948.4 219.686C956.05 206.626 966.69 196.326 980.32 188.786C993.94 181.246 1009.54 177.466 1027.1 177.466C1040.16 177.466 1051.47 179.556 1061.05 183.716C1070.62 187.886 1078.5 193.286 1084.69 199.926C1090.88 206.566 1095.5 213.726 1098.54 221.376C1101.58 229.036 1103.1 236.356 1103.1 243.326C1103.1 255.716 1100.11 264.946 1094.15 271.026C1088.18 277.106 1080.59 280.146 1071.35 280.146H990.96C991.41 285.776 993.49 290.616 997.21 294.666C1000.93 298.716 1005.6 301.876 1011.23 304.126C1016.86 306.376 1022.82 307.506 1029.13 307.506C1034.31 307.506 1038.97 307.226 1043.14 306.656C1047.3 306.096 1050.85 305.306 1053.78 304.296C1056.7 303.286 1059.35 302.266 1061.72 301.256C1064.08 300.246 1066.28 299.396 1068.3 298.726C1070.33 298.046 1072.24 297.606 1074.04 297.376C1077.19 297.156 1080.23 298.116 1083.16 300.246C1086.08 302.386 1088.68 305.596 1090.93 309.866C1092.5 312.346 1093.57 314.706 1094.14 316.956C1094.7 319.206 1094.99 321.466 1094.99 323.706C1094.99 329.336 1092.23 334.236 1086.71 338.396C1081.19 342.566 1073.42 345.886 1063.41 348.356C1053.39 350.836 1041.29 352.076 1027.1 352.076ZM990.96 252.096H1044.33C1047.71 252.096 1050.29 251.476 1052.09 250.236C1053.89 249.006 1054.79 246.576 1054.79 242.976C1054.79 239.146 1053.55 235.666 1051.07 232.506C1048.59 229.356 1045.27 226.936 1041.11 225.246C1036.94 223.556 1032.04 222.716 1026.42 222.716C1019.66 222.716 1013.58 224.066 1008.18 226.766C1002.77 229.466 998.55 233.076 995.51 237.576C992.47 242.086 990.95 246.926 990.95 252.096H990.96Z" fill="#1D334C"/>
<path d="M1150.04 349.036C1141.71 349.036 1135.8 347.856 1132.31 345.486C1128.81 343.126 1126.68 339.916 1125.89 335.856C1125.1 331.806 1124.71 327.636 1124.71 323.356V205.476C1124.71 200.976 1125.1 196.806 1125.89 192.976C1126.68 189.146 1128.87 186.056 1132.48 183.686C1136.08 181.326 1142.05 180.136 1150.38 180.136C1158.26 180.136 1163.94 181.206 1167.44 183.346C1170.93 185.486 1173.13 187.966 1174.03 190.776C1174.93 193.596 1175.38 196.016 1175.38 198.036L1171.33 200.066C1171.78 199.166 1172.96 197.536 1174.88 195.166C1176.79 192.806 1179.44 190.326 1182.82 187.736C1186.2 185.146 1190.31 182.956 1195.15 181.146C1199.99 179.346 1205.56 178.446 1211.87 178.446C1214.34 178.446 1217.1 178.616 1220.14 178.956C1223.18 179.296 1226.33 179.966 1229.6 180.986C1232.86 181.996 1235.85 183.346 1238.55 185.036C1241.25 186.726 1243.45 188.806 1245.14 191.286C1246.83 193.766 1247.67 196.806 1247.67 200.406C1247.67 209.646 1245.53 217.466 1241.25 223.886C1236.97 230.306 1231.57 233.506 1225.04 233.506C1221.21 233.506 1218.51 233.226 1216.94 232.666C1215.36 232.106 1214.07 231.426 1213.06 230.636C1212.05 229.846 1210.86 229.176 1209.51 228.606C1208.16 228.046 1205.68 227.756 1202.08 227.756C1198.7 227.756 1195.49 228.216 1192.45 229.106C1189.41 230.006 1186.6 231.416 1184.01 233.326C1181.42 235.246 1179.39 237.606 1177.93 240.416C1176.46 243.236 1175.74 246.446 1175.74 250.036V324.006C1175.74 328.286 1175.34 332.396 1174.56 336.336C1173.77 340.276 1171.57 343.376 1167.97 345.626C1164.36 347.876 1158.4 349.006 1150.07 349.006L1150.04 349.036Z" fill="#1D334C"/>
<path d="M1292.9 349.036C1284.57 349.036 1278.66 347.856 1275.17 345.486C1271.67 343.126 1269.54 339.916 1268.75 335.856C1267.96 331.806 1267.57 327.636 1267.57 323.356V205.476C1267.57 200.976 1267.96 196.806 1268.75 192.976C1269.54 189.146 1271.73 186.056 1275.34 183.686C1278.94 181.326 1284.91 180.136 1293.24 180.136C1301.12 180.136 1306.8 181.206 1310.3 183.346C1313.79 185.486 1315.99 187.966 1316.89 190.776C1317.79 193.596 1318.24 196.016 1318.24 198.036L1314.19 200.066C1314.64 199.166 1315.82 197.536 1317.74 195.166C1319.65 192.806 1322.3 190.326 1325.68 187.736C1329.06 185.146 1333.17 182.956 1338.01 181.146C1342.85 179.346 1348.42 178.446 1354.73 178.446C1357.2 178.446 1359.96 178.616 1363 178.956C1366.04 179.296 1369.19 179.966 1372.46 180.986C1375.72 181.996 1378.71 183.346 1381.41 185.036C1384.11 186.726 1386.31 188.806 1388 191.286C1389.69 193.766 1390.53 196.806 1390.53 200.406C1390.53 209.646 1388.39 217.466 1384.11 223.886C1379.83 230.306 1374.43 233.506 1367.9 233.506C1364.07 233.506 1361.37 233.226 1359.8 232.666C1358.22 232.106 1356.93 231.426 1355.92 230.636C1354.91 229.846 1353.72 229.176 1352.37 228.606C1351.02 228.046 1348.54 227.756 1344.94 227.756C1341.56 227.756 1338.35 228.216 1335.31 229.106C1332.27 230.006 1329.46 231.416 1326.87 233.326C1324.28 235.246 1322.25 237.606 1320.79 240.416C1319.32 243.236 1318.6 246.446 1318.6 250.036V324.006C1318.6 328.286 1318.2 332.396 1317.42 336.336C1316.63 340.276 1314.43 343.376 1310.83 345.626C1307.22 347.876 1301.26 349.006 1292.93 349.006L1292.9 349.036Z" fill="#1D334C"/>
<path d="M1487.79 338.566L1408.41 217.986C1403.46 210.336 1401.43 204.026 1402.33 199.076C1403.23 194.126 1407.74 189.056 1415.84 183.876C1424.62 178.476 1431.43 176.396 1436.28 177.626C1441.12 178.866 1446.01 183.316 1450.97 190.966L1509.4 280.476L1487.79 338.566ZM1458.4 417.266C1449.16 413.216 1443.82 408.706 1442.36 403.756C1440.89 398.806 1442.08 392.156 1445.91 383.826L1530.69 194.686C1534.52 185.686 1538.74 180.336 1543.36 178.646C1547.97 176.956 1554.9 177.916 1564.13 181.516C1573.13 185.796 1578.37 190.296 1579.83 195.026C1581.3 199.756 1580.22 206.066 1576.62 213.946L1491.51 404.776C1487.68 413.776 1483.51 419.126 1479.01 420.826C1474.5 422.516 1467.64 421.336 1458.4 417.276V417.266Z" fill="#1D334C"/>
<path d="M970.97 0.676141C961.56 -0.313859 913.7 -4.36402 873.21 29.506C822.97 71.536 827.03 136.006 828.69 150.556C839.49 107.556 931.73 40.7361 923.53 54.6761C922.98 55.6061 897.83 87.5859 841.37 151.946L841.2 151.986C841.3 152.046 841.41 152.106 841.51 152.166C863.28 148.446 906.72 135.866 938.54 109.236C993.95 62.876 971.61 4.51614 970.98 0.676141H970.97Z" fill="#1AD980"/>
<path d="M246.45 233.9C258.849 233.9 268.9 223.849 268.9 211.45C268.9 199.051 258.849 189 246.45 189C234.051 189 224 199.051 224 211.45C224 223.849 234.051 233.9 246.45 233.9Z" fill="#1AD980"/>
<path d="M357.45 233.9C369.849 233.9 379.9 223.849 379.9 211.45C379.9 199.051 369.849 189 357.45 189C345.051 189 335 199.051 335 211.45C335 223.849 345.051 233.9 357.45 233.9Z" fill="#1AD980"/>
</svg>
